<?xml version="1.0" standalone="no"?>
<!DOCTYPE svg PUBLIC "-//W3C//DTD SVG 20010904//EN"
 "http://www.w3.org/TR/2001/REC-SVG-20010904/DTD/svg10.dtd">
<svg version="1.0" xmlns="http://www.w3.org/2000/svg"
 width="1024.000000pt" height="1024.000000pt" viewBox="0 0 1024.000000 1024.000000"
 preserveAspectRatio="xMidYMid meet">
<metadata>
Created by potrace 1.11, written by Peter Selinger 2001-2013
</metadata>
<g transform="translate(0.000000,1024.000000) scale(0.100000,-0.100000)"
fill="#000000" stroke="none">
<path d="M0 5120 l0 -5120 5120 0 5120 0 0 5120 0 5120 -5120 0 -5120 0 0
-5120z m8960 640 l0 -2240 -3840 0 -3840 0 0 2240 0 2240 3840 0 3840 0 0
-2240z m-5635 -2908 c66 -30 138 -103 166 -166 34 -76 32 -185 -4 -259 -32
-64 -99 -130 -165 -160 -47 -22 -50 -22 -767 -22 l-720 0 -53 28 c-178 93
-235 303 -126 463 39 58 107 111 168 130 32 10 187 13 746 11 l705 -2 50 -23z
m2560 0 c95 -44 167 -135 186 -236 26 -142 -53 -286 -190 -350 -46 -21 -52
-21 -766 -21 l-720 0 -53 28 c-257 135 -234 495 38 590 40 15 128 16 750 14
l705 -2 50 -23z m2562 -1 c62 -28 136 -103 165 -168 27 -61 29 -160 5 -230
-24 -69 -93 -145 -165 -180 l-57 -28 -715 0 -715 0 -56 26 c-223 105 -253 405
-56 547 89 64 61 62 837 59 l705 -2 52 -24z"/>
<path d="M8321 6826 c-1 -294 -2 -310 -22 -346 -12 -21 -38 -47 -59 -59 -36
-20 -50 -21 -400 -21 -504 0 -472 -22 -481 345 l-5 250 0 -260 c1 -257 1 -261
26 -310 27 -53 69 -88 129 -106 20 -5 164 -13 321 -16 251 -5 292 -4 344 11
78 23 101 40 134 95 l27 46 3 285 c2 157 -1 310 -6 340 -7 40 -10 -28 -11
-254z"/>
<path d="M7020 6474 c-8 -14 -33 -37 -56 -50 l-41 -24 -362 0 c-384 0 -389 1
-445 49 -18 16 -18 15 -3 -15 9 -18 30 -43 46 -57 59 -49 82 -52 426 -52 283
0 324 2 351 17 43 23 81 71 93 115 13 45 9 52 -9 17z"/>
<path d="M5685 6424 l-40 -24 -365 0 c-306 0 -370 3 -394 15 -16 9 -31 14 -33
12 -9 -10 70 -67 104 -76 21 -6 173 -11 338 -13 l300 -3 50 25 c30 15 57 38
68 58 10 17 17 32 15 31 -1 0 -21 -12 -43 -25z"/>
<path d="M4381 6408 c-14 -5 -187 -7 -397 -6 -205 2 -370 0 -367 -5 2 -4 19
-15 36 -25 28 -15 70 -17 333 -20 314 -4 361 1 404 38 28 24 24 31 -9 18z"/>
<path d="M2570 6400 c-434 -4 -518 -7 -485 -17 59 -18 907 -29 955 -12 32 11
87 42 65 37 -6 -2 -246 -5 -535 -8z"/>
<path d="M7521 5546 c-1 -294 -2 -310 -22 -346 -12 -21 -38 -47 -59 -59 -37
-20 -49 -21 -401 -21 -351 0 -365 1 -398 21 -38 23 -70 58 -71 76 0 6 -4 14
-9 17 -17 11 10 -79 35 -116 54 -83 127 -96 535 -94 l235 1 59 30 c49 25 63
39 84 80 26 49 26 51 29 330 2 154 -1 305 -6 335 -7 40 -10 -28 -11 -254z"/>
<path d="M6554 5440 c0 -107 2 -151 3 -97 2 53 2 141 0 195 -1 53 -3 9 -3 -98z"/>
<path d="M6215 5187 c-4 -10 -26 -29 -50 -42 l-42 -25 -362 0 c-384 0 -389 1
-445 49 -18 16 -18 15 -3 -14 20 -40 54 -71 102 -91 34 -15 84 -18 335 -22
312 -4 349 -1 411 41 35 23 74 88 66 110 -3 8 -7 6 -12 -6z"/>
<path d="M4885 5144 l-40 -24 -365 0 c-306 0 -370 3 -394 15 -16 9 -31 14 -33
12 -9 -10 70 -67 104 -76 21 -5 173 -11 338 -13 l300 -3 50 25 c29 15 57 39
68 58 10 18 17 32 15 31 -1 0 -21 -12 -43 -25z"/>
<path d="M3581 5128 c-14 -5 -188 -7 -398 -6 -351 3 -373 2 -353 -14 38 -30
116 -38 393 -38 279 0 327 5 367 40 28 24 24 31 -9 18z"/>
<path d="M8640 4304 c0 -349 0 -351 -23 -385 -12 -18 -38 -44 -56 -56 l-34
-23 -525 0 c-515 0 -525 0 -562 21 -21 12 -47 38 -59 59 -20 36 -21 51 -22
361 0 240 -3 316 -11 294 -17 -47 -16 -639 0 -693 18 -61 73 -118 130 -136 68
-21 133 -25 573 -32 426 -7 471 -4 537 42 43 28 77 78 92 135 9 30 12 132 11
324 -1 281 -10 381 -37 419 -12 18 -14 -24 -14 -330z"/>
<path d="M7041 4271 c-1 -300 -2 -315 -22 -351 -12 -21 -38 -47 -59 -59 l-38
-21 -1803 0 c-1581 0 -1808 2 -1833 15 -40 21 -43 19 -15 -11 32 -35 66 -51
119 -58 49 -6 503 -13 1355 -21 303 -3 613 -7 690 -10 77 -2 431 -8 786 -11
719 -8 712 -8 777 59 60 61 64 89 62 417 0 162 -5 311 -10 330 -5 22 -8 -86
-9 -279z"/>
<path d="M2781 3849 c-15 -6 -233 -8 -558 -7 -293 2 -533 2 -533 0 0 -2 21
-12 47 -24 45 -20 69 -21 495 -26 481 -5 515 -3 559 44 25 26 24 27 -10 13z"/>
</g>
</svg>
